<svg viewBox="0 0 1024 1024" xmlns="http://www.w3.org/2000/svg"><path d="M951.75 412.468c-.058-.39-.32-.704-.394-1.088-.442-1.81-1.03-3.39-1.775-4.88l.06.133c-2.156-3.843-4.672-7.153-7.578-10.072l.002.003-.762-.344c-2.453-1.267-5.395-2.503-8.437-3.52l-.46-.133-.78-.285-256-39.375c-1.112-.182-2.393-.287-3.7-.287-13.25 0-23.993 10.743-23.993 23.994 0 11.998 8.807 21.94 20.31 23.713l.133.017 110.856 17.05-267.228 46.26-267.207-46.26 110.863-17.052c11.698-1.735 20.573-11.708 20.573-23.754 0-13.255-10.744-24-24-24-1.37 0-2.716.115-4.025.336l.14-.02L91.45 392.607c-1.655.433-3.088.972-4.446 1.64l.138-.062c-1.71.586-3.18 1.275-4.56 2.097l.11-.06-.75.34c-.788.74-1.513 1.522-2.18 2.353l-.036.044c-1.32 1.143-2.486 2.402-3.506 3.776l-.045.063c-.653 1.09-1.263 2.36-1.756 3.684l-.054.162c-.675 1.336-1.257 2.894-1.666 4.52l-.034.16c-.083.402-.352.734-.414 1.14l-32 216.03c-.16 1.04-.25 2.237-.25 3.457 0 11.558 8.158 21.212 19.03 23.516l.157.027 46.003 9.408c-.615 1.734-1.04 3.743-1.188 5.83l-.004.073v241.027c0 12.19 9.103 22.257 20.882 23.773l.12.013 379.886 46.94c2.1.804 4.53 1.32 7.063 1.435l.05.002c.61 0 1.118-.305 1.716-.348l1.286.16 384-48.19c11.898-1.527 21-11.593 21-23.784v-.03.003-241c-.152-2.16-.576-4.17-1.24-6.066l.048.162 46.004-9.408c11.03-2.31 19.193-11.952 19.193-23.503 0-1.234-.093-2.446-.273-3.63l.017.133zm-835.625 31.376l361.437 62.563-75.656 170.22-310.844-63.564zM152 674.484L411.187 727.5c1.437.305 3.088.48 4.78.48 9.732 0 18.114-5.773 21.91-14.08l.063-.15L488 601.098V932.8l-336-42.176zm720 216.204l-336 42.824V601.096l50.063 112.652C589.903 722.21 598.276 727.99 608 728c1.713-.016 3.373-.198 4.98-.528l-.167.03L872 674.484zM622.125 676.625l-75.687-170.22 361.437-62.562 25.062 169.216zm-129.813-330.97c4.403 4.883 10.75 7.938 17.812 7.938s13.41-3.055 17.794-7.916l.02-.02 115.187-127.72c23.125-21.043 37.582-51.26 37.582-84.857 0-9.273-1.102-18.29-3.18-26.925l.158.782c-9.87-35.668-37.392-63.192-72.33-72.89l-.73-.173c-7.976-2.078-17.132-3.27-26.567-3.27-25.835 0-49.58 8.945-68.308 23.908l.22-.17c-16.912-12.58-38.207-20.14-61.27-20.14-29.155 0-55.49 12.084-74.265 31.517l-.028.03c-19.568 18.94-31.714 45.447-31.714 74.79 0 30.458 13.087 57.86 33.945 76.886l.082.074zM408.344 99.69c9.904-10.197 23.515-16.746 38.653-17.467l.13-.004 1.657-.03c17.624.686 33.3 8.492 44.33 20.604l.045.05c4.414 4.18 10.39 6.75 16.968 6.75s12.553-2.57 16.98-6.76l-.01.01c12.35-14.725 30.76-24.02 51.338-24.02 4.87 0 9.62.52 14.195 1.51l-.44-.08c19.104 5.28 33.845 20.02 39.034 38.733l.092.39c.876 4.074 1.378 8.755 1.378 13.553 0 20.637-9.284 39.106-23.904 51.458l-.1.082-98.566 109.283L411.5 184.467c-12.59-11.397-20.504-27.763-20.625-45.978v-.022c.726-15.267 7.273-28.877 17.454-38.767l.013-.012z"/></svg>